<mxfile host="app.diagrams.net" modified="2023-09-19T04:15:07.355Z" agent="Mozilla/5.0 (Windows NT 10.0; Win64; x64) AppleWebKit/537.36 (KHTML, like Gecko) Chrome/116.0.0.0 Safari/537.36" etag="o1UXa6018lI9bO4-noDk" version="21.7.5" type="device">
  <diagram id="C5RBs43oDa-KdzZeNtuy" name="Page-1">
    <mxGraphModel dx="580" dy="438" grid="0" gridSize="10" guides="1" tooltips="1" connect="1" arrows="1" fold="1" page="1" pageScale="1" pageWidth="827" pageHeight="1169" math="0" shadow="0">
      <root>
        <mxCell id="WIyWlLk6GJQsqaUBKTNV-0" />
        <mxCell id="WIyWlLk6GJQsqaUBKTNV-1" parent="WIyWlLk6GJQsqaUBKTNV-0" />
        <mxCell id="p8BFKP465fhOb9F-RIUU-374" value="input" style="rounded=1;whiteSpace=wrap;html=1;fontSize=14;glass=0;strokeWidth=1;shadow=0;" vertex="1" parent="WIyWlLk6GJQsqaUBKTNV-1">
          <mxGeometry x="142" y="902" width="120" height="40" as="geometry" />
        </mxCell>
        <mxCell id="p8BFKP465fhOb9F-RIUU-375" value="Конец" style="rounded=1;whiteSpace=wrap;html=1;fontSize=12;glass=0;strokeWidth=1;shadow=0;" vertex="1" parent="WIyWlLk6GJQsqaUBKTNV-1">
          <mxGeometry x="142" y="1104" width="120" height="40" as="geometry" />
        </mxCell>
        <mxCell id="p8BFKP465fhOb9F-RIUU-376" value="Вход. пар-ры: TextBox^ t&lt;br&gt;Возвр. знач.: input" style="text;html=1;strokeColor=none;fillColor=none;align=left;verticalAlign=middle;whiteSpace=wrap;rounded=0;" vertex="1" parent="WIyWlLk6GJQsqaUBKTNV-1">
          <mxGeometry x="332" y="907" width="160" height="30" as="geometry" />
        </mxCell>
        <mxCell id="p8BFKP465fhOb9F-RIUU-377" value="" style="endArrow=none;html=1;rounded=0;entryX=1;entryY=0.5;entryDx=0;entryDy=0;exitX=0;exitY=0.5;exitDx=0;exitDy=0;" edge="1" parent="WIyWlLk6GJQsqaUBKTNV-1" source="p8BFKP465fhOb9F-RIUU-376" target="p8BFKP465fhOb9F-RIUU-374">
          <mxGeometry width="50" height="50" relative="1" as="geometry">
            <mxPoint x="242" y="992" as="sourcePoint" />
            <mxPoint x="292" y="942" as="targetPoint" />
          </mxGeometry>
        </mxCell>
        <mxCell id="p8BFKP465fhOb9F-RIUU-378" value="" style="endArrow=none;html=1;rounded=0;" edge="1" parent="WIyWlLk6GJQsqaUBKTNV-1">
          <mxGeometry width="50" height="50" relative="1" as="geometry">
            <mxPoint x="332" y="902" as="sourcePoint" />
            <mxPoint x="332" y="922" as="targetPoint" />
          </mxGeometry>
        </mxCell>
        <mxCell id="p8BFKP465fhOb9F-RIUU-379" value="" style="endArrow=none;html=1;rounded=0;" edge="1" parent="WIyWlLk6GJQsqaUBKTNV-1">
          <mxGeometry width="50" height="50" relative="1" as="geometry">
            <mxPoint x="332" y="942" as="sourcePoint" />
            <mxPoint x="332" y="922" as="targetPoint" />
          </mxGeometry>
        </mxCell>
        <mxCell id="p8BFKP465fhOb9F-RIUU-380" value="" style="endArrow=none;html=1;rounded=0;" edge="1" parent="WIyWlLk6GJQsqaUBKTNV-1">
          <mxGeometry width="50" height="50" relative="1" as="geometry">
            <mxPoint x="332" y="942" as="sourcePoint" />
            <mxPoint x="372" y="942" as="targetPoint" />
          </mxGeometry>
        </mxCell>
        <mxCell id="p8BFKP465fhOb9F-RIUU-381" value="" style="endArrow=none;html=1;rounded=0;" edge="1" parent="WIyWlLk6GJQsqaUBKTNV-1">
          <mxGeometry width="50" height="50" relative="1" as="geometry">
            <mxPoint x="332" y="902" as="sourcePoint" />
            <mxPoint x="372" y="902" as="targetPoint" />
          </mxGeometry>
        </mxCell>
        <mxCell id="p8BFKP465fhOb9F-RIUU-382" value="" style="endArrow=none;html=1;rounded=0;entryX=0.5;entryY=1;entryDx=0;entryDy=0;exitX=0.5;exitY=0;exitDx=0;exitDy=0;" edge="1" parent="WIyWlLk6GJQsqaUBKTNV-1" source="p8BFKP465fhOb9F-RIUU-375" target="p8BFKP465fhOb9F-RIUU-384">
          <mxGeometry width="50" height="50" relative="1" as="geometry">
            <mxPoint x="202" y="1182" as="sourcePoint" />
            <mxPoint x="200" y="1087" as="targetPoint" />
          </mxGeometry>
        </mxCell>
        <mxCell id="p8BFKP465fhOb9F-RIUU-383" value="" style="endArrow=none;html=1;rounded=0;exitX=0.5;exitY=1;exitDx=0;exitDy=0;entryX=0.5;entryY=0;entryDx=0;entryDy=0;" edge="1" parent="WIyWlLk6GJQsqaUBKTNV-1" source="p8BFKP465fhOb9F-RIUU-374">
          <mxGeometry width="50" height="50" relative="1" as="geometry">
            <mxPoint x="370" y="1217" as="sourcePoint" />
            <mxPoint x="202" y="992" as="targetPoint" />
          </mxGeometry>
        </mxCell>
        <mxCell id="p8BFKP465fhOb9F-RIUU-384" value="input = Convet::&lt;br&gt;ToDouble(t-&amp;gt;Text)" style="rounded=0;whiteSpace=wrap;html=1;" vertex="1" parent="WIyWlLk6GJQsqaUBKTNV-1">
          <mxGeometry x="142" y="988" width="120" height="60" as="geometry" />
        </mxCell>
      </root>
    </mxGraphModel>
  </diagram>
</mxfile>
